<?xml version="1.0" encoding="UTF-8"?>
<svg id="Layer_1" xmlns="http://www.w3.org/2000/svg" viewBox="0 0 556.73 430.65">
  <defs>
    <style>
      .cls-1 {
        fill: #f6f9fb;
      }

      .cls-2 {
        fill: #182c3c;
      }

      .cls-3 {
        fill: #dde1e6;
      }

      .cls-4 {
        fill: #750014;
      }

      .cls-5 {
        fill: #c5c5c7;
      }

      .cls-6 {
        fill: #cdcfd2;
      }
    </style>
  </defs>
  <path class="cls-2" d="M362.03,222.17c-.03,2.66-.21,5.33-.05,7.97.23,3.83-1.34,5.32-5.23,5.37-11.29.14-22.58.57-33.87.89l-17.59.1c-.1,0-.2,0-.3-.02-3.39-.44-6.78-.34-10.17.05-.1.01-.21.02-.31.02-4.83-.07-9.66-.15-14.49-.22-.1,0-.2,0-.3-.02-2.23-.26-5.09-.15-7.4-.25-1.83-.08-2.37.58-2.92,2.13-1.79,5.08-2.79,8.81-4.41,14.61-1.29,4.6-2.45,8.82-3.99,13.36-.05.15-.07.31-.13.45-2.94,7.49-4.93,15.27-7.02,23.02-1.11,4.1-3.27,7.14-8.36,6.89-4.84-.24-7.06-3.26-8.41-7.19-.85-2.48-1.04-5.18-1.63-7.76-5.97-26.15-13.12-52.02-17.79-78.47-.97-5.46-2-10.93-3.5-16.28-.7-2.51-4.28-2.51-5.01-.01-3.88,13.28-6.39,26.81-10.54,39.91-4.15,13.1-7.79,26.36-11.84,39.49-2.07,6.72-5.14,8.81-12.04,8.89-5.48.07-7.43-3.85-8.88-8.14-3.44-10.2-6.8-20.43-10.16-30.66-2.49-7.55-4.39-15.31-8.55-22.22-.53-.87-.85-1.9-2.13-1.54-1.05.29-.9,1.25-.9,2.06,0,2.96-1.62,5.35-2.76,7.9-4.04,9-10.12,13.2-20.86,12.86-24.41-.77-48.88-.05-73.32.06h-.2s-1.92.17-1.92.17c-.08,0-.16,0-.23,0-12.47-.05-24.94-.11-37.42-.16-.29,0-.58-.04-.85-.14-4.02-1.58-7.76-9.32-6.18-13.04.72-1.69,2.12-1.89,3.67-1.9,3.31-.03,6.62-.07,9.93-.11,2.36.01,4.72.03,7.09.04,8.26,0,16.52,0,24.78,0h.18s1.14-.08,1.14-.08h.18c24.49.03,48.98.06,73.48.14,2.33,0,4.53-1.13,5.84-3.07,2.52-3.73,4.71-7.57,6.58-11.7,1.96-4.35,4.49-8.58,7.46-12.31,4.97-6.26,12.9-5.16,16.45,1.95,3.28,6.58,4.98,13.71,6.81,20.77,2.67,10.3,7.07,19.99,10.44,30.04.33.99.59,2.61,2.1,2.35.91-.16,1.33-1.35,1.53-2.39.15-.81.54-1.57.75-2.37,6.42-24.31,12.75-48.65,19.32-72.92,1.85-6.84,4.15-13.59,6.82-20.15,1.54-3.8,4.65-6.75,9.33-6.05,4.23.64,6.65,3.56,7.54,7.64,5.77,26.56,11.33,53.17,17.31,79.69,1.76,7.8,3.15,15.76,5.79,23.45.83,2.42,4.3,2.3,5-.16l.02-.06c3.77-13.18,5.97-21.06,9.77-34.5,8.73-.31,7.53.29,11.49-.09,2.18-.21,3.99-.43,6.97-.29,2.18.11,4.3.34,6.37.34,24.29.04,48.58-.1,72.86-.14,1.74,0,3.79-.53,4.7,1.79Z"/>
  <path class="cls-5" d="M556.71,240.15c0,.88-.21,1.74-1.23,1.81-.99.07-1.41-.66-1.41-1.6,0-.71.23-1.33.98-1.52,1.07-.27,1.45.43,1.66,1.31Z"/>
  <path class="cls-5" d="M556.73,224.44c-.06.95-.47,1.62-1.5,1.54-.8-.06-1.1-.68-1.03-1.41.08-.92.57-1.6,1.54-1.58.85.02.95.76.99,1.44Z"/>
  <path class="cls-4" d="M260.57,220.53c-3.94,13.94-6.71,20.6-10.69,34.53-.57,2-.79,4.21-2.72,6.05-4.25-9.46-5.87-19.49-8.09-29.29-5.98-26.51-11.54-53.12-17.31-79.69-.89-4.08-3.31-7-7.54-7.64-4.68-.71-7.78,2.25-9.33,6.05-2.67,6.56-4.96,13.32-6.82,20.15-6.57,24.27-12.9,48.61-19.32,72.92-.21.8-.6,1.56-.75,2.37-.19,1.05-.61,2.24-1.53,2.39-1.51.26-1.77-1.36-2.1-2.35-3.37-10.05-7.77-19.74-10.44-30.04-1.83-7.06-3.53-14.19-6.81-20.77-3.55-7.11-11.48-8.21-16.45-1.95-2.97,3.74-5.5,7.96-7.46,12.31-1.99,4.42-4.36,8.49-7.1,12.46-1.07,1.55-2.06,2.32-3.95,2.32-24.98-.08-49.96-.11-74.95-.15,3.26-9.34,6.8-18.52,14.66-25.18,2.19-.6,3.28,1.2,4.71,2.2,3.86,2.68,8.01,4.73,12.74,5.12,1.91.16,4.61,1.48,5.5-1.52.96-3.22,1.7-7.36-1.75-9.02-5.42-2.62-9.91-6.6-15.27-9.21-9.7-9.39-10.22-21.4-9.43-33.68,1.24-19.19,13.36-30.86,28.38-40.43.65-.42,1.53-.47,2.31-.7,2.93-.7,4.01.98,5.05,3.41,2.27,5.27,6.33,8.82,11.65,11,4.82,1.97,9.92,1.56,14.72.88,5.64-.8,7.01,1.13,7.09,6.35.09,6.11.31,12.27,2.26,18.25,7.36,22.6,30.08,32.29,50.54,29.41,3.53-.5,1.12-4.8,1.43-7.29.44-3.51-.78-5.17-5.18-4.66-18.67,2.17-31.35-8.04-35.03-24.03-3.76-16.37-4.54-33.59,8.05-47.86.44-.49.78-1.09,1.07-1.68,2.03-4.14-.05-7.3-4.71-7.29-2.71,0-4.65,1.48-6.59,3.11-6.36,5.35-8.98,12.61-10.37,20.44-.62,3.48-2.33,4.88-5.86,4.23-9.4-1.72-18.66-3.64-23.13-13.68-4.66-18.01.45-33.42,13.59-45.86,7.91-7.49,18.15-11.01,29.11-11.87,3.3-.26,6.62-.13,9.94-.18,2.27,2.02,1.17,4.68,1.16,7.02-.02,5.66,1.54,10.69,4.97,15.2,2.63,3.46,5.37,4.8,9.71,2.35,4.3-2.44,4.52-5.05,2.56-9.19-2.94-6.2-6.86-12.2-6.15-19.58,1.36-13.46,10.44-21.41,21.08-27.27,14.28-7.86,29.94-9.91,45.81-5.74,18.03,4.74,30.37,21.44,30.35,40.24-.04,37.78-.24,75.56-.36,113.34-.06,18.81-1.23,44.9-1.28,63.71ZM210.69,70.35c.21-15.96,5.59-20.93,20.94-18.7,4.47.65,5.77-1.33,5.72-5.12-.07-5.24-4.58-9.95-9.83-10-11.38-.09-20.12,4.42-25.78,14.68-3.27,5.93-3.46,12.32-3.66,18.7-.1,3.12-1,3.89-4.1,4.61-17.28,4.03-25.76,16.97-21.93,33.64,2.48,10.77,10.47,17.64,20.92,19.84,15,3.15,30.08.88,44.83-2.77,4.46-1.11,6.53-6.49,4.78-11-1.75-4.52-5.25-2.44-8.07-1.67-11.63,3.17-23.34,5.39-35.48,3.86-7.73-.97-13.24-5.86-14.13-12.61-1.02-7.75,3.04-14.4,10.49-17.34,3.37-1.34,6.86-.99,10.34-1.06,5.46-.11,6.52-1.45,5.78-6.63-.4-2.79-.56-5.62-.82-8.43ZM115.47,181.52c2.7.32,5.22-.14,6.14-3.75.92-3.57-.65-5.76-3.59-7.29-1.47-.76-3-1.44-4.57-1.95-9.1-2.99-14.91-8.96-16.91-18.45-.31-1.45-.72-2.9-1.28-4.27-2.08-5.07-5.98-5.55-9.42-1.25-2.26,2.82-2.41,6.1-2.18,9.45.85,12.25,17.83,27.08,31.8,27.5Z"/>
  <path class="cls-4" d="M80.18,300.46c-.59.12-1.22-.03-1.74-.35-15.2-9.28-24.87-22.53-28.39-40.17-1.45-7.28-3.17-14.53-3.08-22,.02-1.4,1.15-2.53,2.55-2.53,23.66-.15,47.34-.8,70.97-.05,10.74.34,16.82-3.86,20.86-12.86,1.14-2.55,2.77-4.94,2.76-7.9,0-.81-.16-1.77.9-2.06,1.28-.36,1.61.66,2.13,1.54,4.16,6.91,6.06,14.67,8.55,22.22,3.37,10.23,6.73,20.46,10.16,30.66,1.45,4.29,3.4,8.21,8.88,8.14,6.9-.09,9.97-2.17,12.04-8.89,4.05-13.13,7.69-26.39,11.84-39.49,4.16-13.15,6.67-26.73,10.58-40.06.72-2.45,4.23-2.45,4.92.01,1.52,5.4,2.57,10.93,3.54,16.44,4.67,26.45,11.82,52.32,17.79,78.47.59,2.58.79,5.28,1.63,7.76,1.35,3.94,3.56,6.96,8.41,7.19,5.08.25,7.25-2.79,8.36-6.89,2.12-7.83,4.12-15.69,7.11-23.24.96-3.46.61,3.37.54,5.03-.16,3.86-.89,7.69-.29,11.57.02.1.03.21.03.32.11,11.07.29,22.14.28,33.2,0,3.97-.34,7.94-.59,11.9-.05.89-.56,1.7-1.36,2.11-3.31,1.68-6.2,4.03-9.07,6.31-4.59,3.65-9.77,5.48-15.48,6.29-17.77,2.52-34.07-10.11-34.42-26.97-.18-8.37,3.59-15.37,8.66-21.77,1.72-2.17,2.33-4.52.24-6.76-2.03-2.18-4.65-2.79-7.25-1.29-2.28,1.32-4.61,2.84-6.3,4.8-5.82,6.76-13.5,10.01-21.75,12.46-26.33,7.83-48.9-10.36-45.58-37.01.24-1.96.37-4.04-.01-5.96-1-5-5.65-6.33-9.34-2.78-2.29,2.2-3.18,5.06-3.26,8.13-.12,4.49-.52,9.05.05,13.46.97,7.58,3.56,14.63,8.27,20.88,7.55,10,17.82,15.04,29.86,17.1,1.25.21,2.74.11,2.83,2.05.5,11.18-10.9,19.71-22.05,16.38-10.29-3.07-15.74-10.3-17.99-20.6-1.85-8.46-4.25-10.06-12.76-11.29-6.08-.88-12.35-1.61-16.72-6.39-1.11-1.21-3.05-1.03-3.99.32-.83,1.21-1.77,2.27-3.34,2.59Z"/>
  <path class="cls-2" d="M319,183.57c-.7.01-1.41.02-2.11.03-1.48-.32-2.03.35-1.88,1.77l-.25.24s.13.32.13.32c-.34.85-.69,1.7-1.03,2.55-4.86,5.64-10.92,8.87-18.37,7.22-7.85-1.74-13.98-5.93-15.99-14.5-1.99-8.48,3.43-17.19,13.06-20.71,8.35-3.05,18.39.39,21.62,8.05,1.42,3.37,3.29,3.94,6.36,3.82,4.81-.18,9.63-.11,14.44-.14,1.96,0,3.93,0,5.89,0,6.03.02,12.05.05,18.08.07.71.13.93-.37,1.14-.88,7.18-10.08,15.34-13.55,25.29-11.14,5.65,1.37,8.96,5.64,12.2,9.71,1.51,1.89,2.72,2.38,4.8,2.38,17.81-.03,35.62-.05,53.43.04,2.51.01,3.84-.6,5.35-2.95,4.08-6.36,9.65-11.17,17.83-10.89,7.38.25,12.58,4.1,16.25,10.55,6.45,11.34-2.55,23.04-13.67,26.14-7.42,2.07-16.15-1.53-19.21-8.71-1.43-3.37-3.12-4.02-6.24-4-17.97.12-35.95.15-53.92.09-2.14,0-3.03.17-3.5,2.71-.82,4.45-3.33,8.28-7.1,10.92-2.04,1.43-2.55,2.88-2.27,5.35,3.48,30.01,3.08,60.11,1.8,90.22-.07,1.74.45,2.74,1.65,3.82,13.98,12.6,11.05,28.46-6.48,35.26-.46.18-.91.41-1.36.62-3-.39-6.01-.78-9.01-1.17-2.93-2.42-6.42-3.98-9.23-6.66-12.08-11.52-3.2-28.83,7.92-30.74,4.72-.81,5.72-3.09,5.91-7.27.79-17.82-.56-35.6-.62-53.41-.03-9.48.25-18.98-.84-28.43-.18-1.55.23-3.18-2.22-3.74-8.81-2-15.2-6.95-18.12-15.79-.59-1.92-2.21-1.1-3.34-1.09-12.14.05-24.27.2-36.41.33ZM388.93,179.76c.02-4.12-4.46-8.47-8.81-8.56-4.48-.09-9.26,4.8-9.18,9.38.07,3.73,5.24,8.71,9,8.66,3.44-.05,8.97-5.89,8.99-9.49ZM374.68,310.09c-.25,4.69,2.43,8.3,6.33,8.53,4.41.26,8.44-3.04,8.66-7.11.24-4.26-3.86-8.7-8.3-8.99-3.87-.25-6.43,2.64-6.7,7.57ZM297.69,184.38c4.49.05,8.11-3.05,7.99-6.84-.12-3.55-3.35-7.03-6.53-7.04-3.91-.01-7.95,3.74-8.04,7.46-.1,4.59,1.71,6.36,6.58,6.41ZM485.11,177.06c-.07-4.16-2.56-6.78-6.33-6.64-4.25.16-7.1,3.13-7.01,7.32.09,4.16,2.54,6.71,6.34,6.61,4.35-.12,7.07-2.96,6.99-7.29Z"/>
  <path class="cls-3" d="M81.19,300.12c.96-.47,1.65-1.27,2.27-2.16.97-1.4,2.97-1.58,4.13-.33,4.37,4.71,10.59,5.44,16.64,6.31,8.51,1.23,10.91,2.83,12.76,11.29,2.25,10.3,7.7,17.53,17.99,20.6,11.15,3.33,22.55-5.2,22.05-16.38-.09-1.94-1.57-1.83-2.83-2.05-12.04-2.06-22.31-7.09-29.86-17.1-4.71-6.24-7.3-13.3-8.27-20.88-.57-4.42-.17-8.97-.05-13.46.08-3.07.98-5.93,3.26-8.13,3.69-3.55,8.34-2.23,9.34,2.78.38,1.91.26,4,.01,5.96-3.32,26.65,19.25,44.84,45.58,37.01,8.25-2.45,15.93-5.7,21.75-12.46,1.69-1.96,4.03-3.49,6.3-4.8,2.59-1.5,5.22-.89,7.25,1.29,2.09,2.25,1.48,4.6-.24,6.76-5.07,6.4-8.84,13.4-8.66,21.77.35,16.86,16.66,29.49,34.42,26.97,5.71-.81,10.88-2.63,15.48-6.29,2.05-1.63,4.11-3.29,6.32-4.72,1.74-1.13,4.05.13,4.07,2.21.03,2.9.07,5.8.1,8.7.01.93-.47,1.8-1.27,2.29-3.53,2.17-7.02,4.4-10.65,6.38-2.54,1.39-3.34,3.22-3.22,6.02.28,6.53-.73,12.9-2.99,19.07-4.6,12.53-14.65,20.28-26.72,20.48-13.46.23-21.17-4.97-26.24-18.78-1.83-4.99-4.47-2.76-6.81-1.65-8.59,4.08-17.16,8.19-26.45,10.47-.49.12-1,.1-1.48-.06-3.2-1.08-5.98-2.68-8.08-5.13-1.28-1.5-.54-3.8,1.37-4.3,10.66-2.79,20.01-8.44,29.33-14.19,7.13-4.39,11.07-3.61,16.14,3.09,2.1,2.78,3.6,6.01,5.72,8.77,3.86,5.04,8.64,9.1,15.41,8.7,7.06-.41,11.26-4.94,13.99-11.2,1.69-3.88,2.27-7.94,2.92-12.05.74-4.67.05-7.66-5.77-6.87-1.91.26-3.95-.43-5.93-.67-15.11-1.8-28.24-13.66-30.94-28.35-.54-2.96-.57-6.02-.64-9.28-.04-1.77-1.78-3-3.46-2.46-5.16,1.65-10.22,3.28-15.29,4.87-1,.31-1.33.39-1.13,1.84,2.14,15.35-5.94,26.18-21.25,28.81-19.71,3.39-37.73-8.81-43.43-29.43-.51-1.84-.27-4.35-2.84-4.7-5.75-.8-11.35-2.89-17.27-2.33-.63.06-1.28-.07-1.8-.44-3.14-2.28-2.09-5.93-2.44-9.12-.12-1.1.42-2.18,1.42-2.67Z"/>
  <path class="cls-2" d="M487.71,209.41c3.95-7.85,11.04-9.41,18.85-9.11,7.2.28,12.21,4.39,15.01,10.64,3.11,6.95.74,13.39-3.78,18.99-8.92,11.06-29.16,6.61-30.82-6.58-.3-2.4-1.81-1.94-3.19-1.94-4.98,0-9.97.1-14.95.16-7.96-.02-15.92-.03-23.87-.05-.7-.02-1.39-.04-2.09-.06-1.21-.16-2.55-.71-3.16,1.02-2.63,4.06-5.48,7.88-10.7,8.71-2.19.35-1.91,1.97-1.93,3.39-.04,5.62,0,11.25,0,16.87-.02,3.3-.05,6.59-.07,9.89,0,1.36,0,2.73,0,4.09.03,4.96.06,9.92.09,14.88.06,17.81.11,35.62.22,53.44,0,1.56-.11,2.92,2.09,3.87,12.89,5.58,16.1,18.01,7.91,29.71-4.73,6.76-13.52,9.97-20.91,8.17-10.05-2.44-15.02-9.72-15.47-16.65-.64-9.74,3.84-18.26,12.06-21.43,2.8-1.08,2.34-2.68,2.31-4.62-.37-26.31-.78-52.62-1.08-78.93-.07-5.99.1-12,.44-17.98.17-3.01-.33-4.87-3.21-6.75-7.77-5.07-10.09-12.47-7.48-21.09,2.08-6.87,10.66-13.59,17.43-13.67,9.12-.1,16.09,4.62,18.97,13.18.67,1.98,1.17,3.08,3.59,2.88,3.64-.31,7.31-.17,10.97-.22,10.14.07,20.28.16,30.42.2.84,0,2.08.55,2.32-1ZM429.91,355.36c.02-4.65-3.16-7.99-7.62-8.02-4.29-.03-9.53,5.42-9.44,9.82.08,3.97,3.6,7.19,7.98,7.29,5.19.12,9.06-3.75,9.08-9.09ZM422.54,220.39c4.22-.02,7.3-2.9,7.36-6.88.07-4.15-3.59-7.97-7.75-8.1-3.21-.09-8.04,4.44-8.05,7.56,0,2.99,5.05,7.44,8.43,7.42ZM503.11,224.69c3.35-.03,8.18-4.94,7.77-8.3-.49-3.97-3.2-5.99-7.05-6.26-3.74-.26-7.29,3.38-7.29,7.17,0,3.63,3.38,7.42,6.58,7.39Z"/>
  <path class="cls-2" d="M404.07,132.42c-3.1,7.31-8.56,12.56-15.35,16.22-6.95,3.75-13.93,2.33-20.35-1.73-2.5-1.58-4.5-3.93-6.9-5.71-5.07-3.76-4.18-9.2-4.35-14.39-.06-1.71.47-3.86-2.71-3.32-11.75,1.99-23.59.74-35.4.82-11.66.08-23.32-.05-34.97.15-3.23.06-4.43-1.35-3.93-4.1.48-2.61-1.52-6.86,3.71-6.95,23.64-.43,47.28-.9,70.89.96,1.47.12,3.01-.06,4.27,1.02,1.75,1.5,2.96.46,4.2-.86,9.72-10.45,24.71-11.58,35.85,1.45,1.06,1.24,2.05,1.59,4.11,1.31,12.15-1.69,24.4-3.37,36.46.6,2.43.8,3.28-1.19,4.52-2.2,9.89-8.03,29.89-7.35,35.01,10.66,2.24,7.88-1.48,17.73-8.84,22.61-7.15,4.74-16.82,4.36-23.29-.75-6.44-5.09-11.13-10.99-10.25-19.82,1.11-3.54-.32-4.69-3.85-4.63-6.82.12-13.64-.12-20.45-.14-8.65-.03-8.65,0-8.4,8.79ZM380.71,138.42c4.7,0,9.83-4.79,9.96-9.3.15-5.14-4.87-10.77-9.7-10.89-5.31-.13-10.09,4.87-10.22,10.69-.11,5.16,4.42,9.5,9.96,9.51ZM458.86,139.78c3.96.11,8.86-4.57,8.97-8.58.11-3.96-4.56-8.77-8.59-8.84-4.08-.07-8.82,4.39-8.98,8.46-.16,3.94,4.55,8.84,8.6,8.95Z"/>
  <path class="cls-4" d="M155.9,387.47c9.58-2.24,18.37-6.46,27.19-10.65,2.33-1.11,4.97-3.33,6.81,1.65,5.07,13.8,12.78,19,26.24,18.78,12.07-.2,22.12-7.94,26.72-20.48,2.26-6.17,3.28-12.54,2.99-19.07-.12-2.8.68-4.63,3.22-6.02,4.07-2.22,7.97-4.76,11.94-7.17.22.45.62.9.62,1.35.04,14.28,2.18,28.79-.87,42.79-3.68,16.91-17.05,31.66-35.65,33.85-11.13,1.31-22.08,1.21-32.88-1.39-11.8-2.84-20.82-10.29-28.73-19.18-.77-.86-1.5-1.75-2.24-2.62-1.37-2.09-2.75-4.18-4.12-6.27.04-.28-.05-.51-.27-.68-.33-.65-.66-1.31-.99-1.96,0-.97.01-1.94.02-2.92Z"/>
  <path class="cls-2" d="M293.93,64.57c-3.32-.11-6.64-.29-9.96-.3-5.79-.03-4.62-4.27-4.95-7.8-.36-3.95,1.89-4.13,4.91-4.18,9.52-.15,7.79.66,7.86-8.06.04-4.55.27-8.6-5.67-10.92-4.74-1.85-7.39-6.98-7.55-12.63-.25-8.53,5.52-16.58,14.12-19.69,7.32-2.65,15.34.11,21.05,7.23,7.83,9.78,3.66,23.53-8.35,27.27-2.59.81-3.37,2.18-3.39,4.93-.1,11.93-.21,11.91,11.78,11.86,5.66-.02,11.31.03,16.97.07,2.49.02,3.71-.59,2.68-3.53-2.39-6.86-2.58-14.12-3.42-21.26,2.34-4.95,5.83-5.33,11.06-1.21.42,4.74,1.23,9.43.76,14.24-.35,3.55.02,7.23-3.3,9.98,6.7,0,12.76.01,18.81,0,2.61,0,2.03-2.4,2.35-3.71,3.58-14.62,23.12-19.48,33.44-8.63,5.18,5.45,7.15,12,4.72,19.2-2.55,7.56-8.04,12.05-16.11,12.98-7.38.84-13.91-.65-18.47-7.16-.29-.41-.5-.92-.88-1.2-1.13-.82-17.66-.04-18.49,1.11-4.49,6.13-9.89,5.69-15.78,2.46-1.77-2.21-4.27-2.38-6.78-2.26-6.8.32-13.6.72-20.4,1.09l-7.01.12ZM387.71,51.9c-.05-4.27-3.78-8.41-7.62-8.44-4.31-.04-8.2,3.94-8.2,8.38,0,4.66,3.78,8.64,8.03,8.46,3.86-.17,7.84-4.45,7.79-8.4ZM290.97,19.04c-.23,4.29,2.1,7.08,6.17,7.38,4.14.31,8.7-3.31,8.74-6.94.05-3.85-3.55-7.71-7.39-7.93-4.1-.23-7.28,2.93-7.52,7.49Z"/>
  <path class="cls-2" d="M355.56,335.22c.77,10.6.29,22.76.2,34.91-.03,3.43.52,5.2,4.48,5.93,9.87,1.82,16.08,10.37,15.73,20.61-.29,8.2-7.12,16.11-15.16,17.54-10.3,1.84-19.66-3.03-22.96-12.4-2.79-7.93-.61-15.15,4.74-21.3,2.27-2.61,3.11-4.41,1.53-8.02-2.05-4.68-1.87-10.1-1.94-15.25-.3-21.97-.91-43.94.26-65.9.21-3.88-.48-6.61-4.31-8.99-6.77-4.2-8.83-12.16-6.19-19.78,4.95-14.29,22.18-18.85,33.25-8.81,9.59,8.69,5.82,27.11-6.49,31.27-5.07,1.72-4.49,6.5-4.51,9.76-.05,12.96.79,25.93,1.36,40.43ZM364.83,395.5c-.01-4.09-4.34-8.52-8.25-8.45-3.89.07-7.64,4.15-7.67,8.35-.03,3.77,4.53,8.04,8.61,8.08,3.59.03,7.32-4.03,7.31-7.97ZM351.03,275.49c3.27.09,7.88-4.58,8.07-8.16.19-3.45-4.26-7.83-8.11-7.99-3.58-.15-7.45,3.82-7.57,7.74-.12,4,3.77,8.31,7.61,8.41Z"/>
  <path class="cls-2" d="M305.25,245.05c5.91-.03,10.59.03,16.51,0,1.66,7.23-1.15,8.39-1.67,15.27-1.61,21.28.33,42.57.15,63.86-.15,19.13-.98,38.21-1.92,57.3-.15,3.07.14,12.99-3.66,12.46-1.22-.17,1.48-4.68,1.01-3.39-.54,1.5-.48,3.08.56,4,1.25,1.1-1.18-1.17,0,0,7.85,7.8,7.93,20.25.22,29.45-6.35,7.58-18.56,8.88-26.9,2.86-11.74-8.48-12.22-22.23-1.17-33.79,4.65-3.29,9.96-4.34,15.49-4.27,2.8.04,3.75-.96,3.67-3.76-.29-9.42-.39-18.84-.56-28.26.26-6.45.5-12.91.78-19.36,1-22.87.13-45.71-.77-68.56.3-5.24.35-10.56-.74-15.57-.84-3.83-1.93-3.75-1.01-8.25ZM310.16,410.59c.06-3.79-4.54-8.43-8.4-8.47-3.75-.04-8.31,4.59-8.37,8.52-.06,3.82,4.26,7.73,8.8,7.94,3.85.18,7.9-3.88,7.97-7.99Z"/>
  <path class="cls-2" d="M390.85,82.22c.66.07,1.32.2,1.98.21,2.83.04,6.11.97,8.36-.16,2.54-1.28,1.11-5.05,1.74-7.69,2.46-10.29,14.78-17.1,25.7-14.02,10.81,3.05,17.26,14.83,13.77,25.1-5.54,16.28-24.09,19.17-33.88,8.83-1.13-1.19-2.13-2.31-4.18-2.06-14.23,1.69-28.54,1.13-42.81,1.12-25.46,0-50.91-.5-76.36.31-2.55.08-5.28.51-5.26-3.36.02-3.45-.61-7.34,4.5-7.88,1.49-.16,3.02-.42,4.47-.21,4.36.64,5.77-1.12,5.42-4.44-.13-1.19.99-2.22,2.13-1.88,1.49.45,2.28,2.27,3.45,3.34-.33.76-.19,1.44.36,2.05.88,1.46,2.36,1,3.59.99,29.01-.06,58.02-.16,87.03-.26ZM423.53,87.65c4.37.08,8.22-3.37,8.32-7.47.1-4.18-4.72-9.14-8.95-9.2-3.37-.05-7.53,4.5-7.79,8.5-.24,3.83,4.14,8.09,8.41,8.17Z"/>
  <path class="cls-3" d="M100.09,98.36c4.47,10.04,13.73,11.96,23.13,13.68,3.52.65,5.24-.76,5.86-4.23,1.39-7.83,4.01-15.09,10.37-20.44,1.94-1.63,3.87-3.1,6.59-3.11,4.66,0,6.74,3.15,4.71,7.29-.29.59-.63,1.19-1.07,1.68-12.59,14.26-11.82,31.49-8.05,47.86,3.68,15.99,16.35,26.19,35.03,24.03,4.4-.51,5.63,1.15,5.18,4.66-.31,2.49,2.1,6.8-1.43,7.29-20.46,2.88-43.18-6.81-50.54-29.41-1.94-5.97-2.16-12.13-2.26-18.25-.08-5.21-1.44-7.15-7.09-6.35-4.8.69-9.9,1.1-14.72-.88-5.32-2.18-9.38-5.72-11.65-11-1.04-2.43-2.12-4.11-5.05-3.41,4.04-2.7,5.54-8.37,10.99-9.43Z"/>
  <path class="cls-2" d="M449.95,279.52c-8.76-4.63-13.07-13.6-10.75-22.38,2.37-8.97,11.34-14.82,21.99-14.34,11,.49,18.85,6.67,20.05,15.77,1.26,9.57-5.11,19.61-14.92,22.47-3.83,1.12-1.96,3.41-2.22,5.38-.24,7.28-.49,14.56-.73,21.85-.84,6.28.41,12.53.2,18.8-.21,6.41-4.41,9.19-10.52,7.17-1.86-.62-1.47-1.99-1.5-3.18-.16-4.93-.2-9.87-.29-14.8.06-10.31.12-20.61.19-30.92-.02-.48-.05-.96-.07-1.44-.08-1.59,1.28-3.64-1.43-4.37ZM459.52,270.42c5.42.07,10.28-3.65,10.3-7.88.02-4.42-4.7-8.98-9.48-9.14-5.11-.18-9.37,4.12-9.35,9.44.01,4.52,3.39,7.52,8.53,7.58Z"/>
  <path class="cls-2" d="M282.02,245.05c3.84.06,7.68.12,11.52.17.9.01,1.59.8,1.49,1.69-.4,3.66-.78,7.32-.53,11.02,0,.09,0,.18,0,.27-.31,2.59-.71,5.17-.9,7.77-2.08,29.58-.76,59.24-1.94,88.84,0,.21-.16.4-.16.62-.05,4.6-.02,8.21-.14,12.31-.01.44-.24.86-.59,1.13-4.07,3.13-6.54,3.31-8.97.65-.25-.27-.38-.64-.38-1.01-.03-22.48-.05-44.96-.08-67.44,0-.67,0-1.34,0-2.01-.01-1.66-.03-3.32-.04-4.98.07-1.82.1-3.63.21-5.45.83-14.03-.57-28-1.04-41.99-.03-.87.68-1.59,1.55-1.58Z"/>
  <path class="cls-2" d="M362.03,213.83c-.91-2.32-2.96-1.79-4.7-1.79-24.29.05-48.58.18-72.86.14-2.76,0-6.1,1.3-8.08-2.1.34-5.37,3.86-7.3,8.58-7.93,17.29-.12,34.59-.23,51.89-.35,5.81.07,11.61.14,17.42.22,8.86.11,10.67,2.85,7.77,11.81Z"/>
  <path class="cls-2" d="M345.72,149.27c-20.12,1.36-40.27.88-60.42.86-3.66,0-5.98-.78-5.44-5.27.36-3.01,1.36-4.44,4.57-4.49,20.82-.3,41.63.22,62.44.9,1.44.05,3.11-.29,3.86,1.55-1.98,1.91-3.86,3.9-5.01,6.45Z"/>
  <path class="cls-3" d="M164.96,36.25c-.71,7.38,3.22,13.38,6.15,19.58,1.96,4.14,1.74,6.75-2.56,9.19-4.34,2.46-7.08,1.11-9.71-2.35-3.43-4.51-4.98-9.54-4.97-15.2,0-2.34,1.11-5.01-1.16-7.02,5.08,1.52,7.87-3.65,12.24-4.2Z"/>
  <path class="cls-3" d="M67.84,182.6c5.36,2.61,9.85,6.6,15.27,9.21,3.44,1.66,2.7,5.8,1.75,9.02-.89,2.99-3.59,1.67-5.5,1.52-4.73-.39-8.88-2.44-12.74-5.12-1.44-1-2.52-2.8-4.71-2.2,2.22-4.03,2.71-8.88,5.94-12.43Z"/>
  <path class="cls-1" d="M463.37,308.27c.24-7.28.49-14.56.73-21.85"/>
  <path class="cls-1" d="M444.97,221.51c7.96.02,15.92.03,23.87.05"/>
  <path class="cls-5" d="M345.72,149.27c1.15-2.55,3.03-4.54,5.01-6.45"/>
  <path class="cls-1" d="M427.13,280.29c-.03-4.96-.06-9.92-.09-14.88"/>
  <path class="cls-1" d="M427.04,261.32c.02-3.3.05-6.59.07-9.89"/>
  <path class="cls-1" d="M340.87,172.23c-1.96,0-3.93,0-5.89,0"/>
  <path class="cls-5" d="M280.78,290.36c0,.67,0,1.34,0,2.01-.43-.33-.86-.67-1.29-1,.43-.34.85-.67,1.28-1.01Z"/>
  <path class="cls-1" d="M315.01,185.37c-.16-1.42.4-2.09,1.88-1.77-.23,1.01-.82,1.64-1.88,1.77Z"/>
  <path class="cls-1" d="M439.73,222.47c.6-1.73,1.94-1.18,3.16-1.02-.85.95-2.01.97-3.16,1.02Z"/>
  <path class="cls-1" d="M313.86,188.48c.34-.85.69-1.7,1.03-2.55-.34.85-.69,1.7-1.03,2.55Z"/>
  <path class="cls-1" d="M360.1,171.42c-.21.51-.43,1.01-1.14.88.38-.29.76-.59,1.14-.88Z"/>
  <path class="cls-4" d="M83.1,312.46c6.25-.88,12.13,1.39,18.18,2.23,2.56.36,2.33,2.86,2.84,4.7,5.7,20.61,23.71,32.82,43.43,29.43,15.32-2.64,23.39-13.47,21.25-28.81-.2-1.45.13-1.53,1.13-1.84,6.15-1.94,12.3-3.92,18.63-5.94.25,4.62.03,8.8.77,12.81,2.7,14.69,15.83,26.55,30.94,28.35,1.98.24,4.02.93,5.93.67,5.82-.79,6.51,2.2,5.77,6.87-.65,4.11-1.23,8.17-2.92,12.05-2.73,6.25-6.93,10.78-13.99,11.2-6.77.4-11.54-3.66-15.41-8.7-2.12-2.76-3.62-6-5.72-8.77-5.07-6.7-9.02-7.48-16.14-3.09-10.36,6.38-20.74,12.65-32.92,15.01-2.31.22-4.63.44-6.94.65-7.1-2.31-14.15-4.79-20.96-7.86-20.55-11.31-29.86-29.97-33.88-52.02-.41-2.24,0-4.62.02-6.93Z"/>
  <path class="cls-3" d="M210.69,70.35c.27,2.81.43,5.64.82,8.43.74,5.18-.32,6.52-5.78,6.63-3.48.07-6.97-.27-10.34,1.06-7.44,2.95-11.51,9.59-10.49,17.34.89,6.75,6.4,11.63,14.13,12.61,12.14,1.53,23.84-.7,35.48-3.86,2.82-.77,6.32-2.85,8.07,1.67,1.75,4.51-.33,9.89-4.78,11-14.75,3.66-29.82,5.92-44.83,2.77-10.45-2.19-18.45-9.07-20.92-19.84-3.83-16.67,4.65-29.61,21.93-33.64,3.1-.72,4-1.49,4.1-4.61.2-6.38.39-12.77,3.66-18.7,5.65-10.27,14.4-14.78,25.78-14.68,5.25.04,9.76,4.75,9.83,10,.05,3.79-1.25,5.77-5.72,5.12-15.35-2.23-20.73,2.74-20.94,18.7Z"/>
  <path class="cls-3" d="M115.47,181.52c-13.97-.43-30.95-15.25-31.8-27.5-.23-3.35-.08-6.63,2.18-9.45,3.44-4.29,7.34-3.82,9.42,1.25.56,1.37.97,2.82,1.28,4.27,2,9.49,7.81,15.46,16.91,18.45,1.57.52,3.1,1.19,4.57,1.95,2.94,1.53,4.5,3.72,3.59,7.29-.93,3.61-3.44,4.06-6.14,3.75Z"/>
  <path class="cls-3" d="M388.93,179.76c-.01,3.6-5.55,9.44-8.99,9.49-3.76.05-8.94-4.93-9-8.66-.08-4.58,4.71-9.47,9.18-9.38,4.35.09,8.83,4.43,8.81,8.56Z"/>
  <path class="cls-3" d="M374.68,310.09c.27-4.93,2.82-7.82,6.7-7.57,4.44.29,8.53,4.73,8.3,8.99-.23,4.07-4.25,7.37-8.66,7.11-3.9-.23-6.59-3.85-6.33-8.53Z"/>
  <path class="cls-3" d="M297.69,184.38c-4.87-.05-6.68-1.82-6.58-6.41.08-3.72,4.12-7.47,8.04-7.46,3.18,0,6.42,3.49,6.53,7.04.12,3.78-3.5,6.88-7.99,6.84Z"/>
  <path class="cls-3" d="M429.91,355.36c-.02,5.34-3.89,9.21-9.08,9.09-4.38-.1-7.9-3.32-7.98-7.29-.09-4.4,5.15-9.85,9.44-9.82,4.46.03,7.63,3.37,7.62,8.02Z"/>
  <path class="cls-3" d="M422.54,220.39c-3.38.02-8.43-4.43-8.43-7.42,0-3.12,4.83-7.66,8.05-7.56,4.15.12,7.81,3.95,7.75,8.1-.07,3.98-3.14,6.86-7.36,6.88Z"/>
  <path class="cls-3" d="M380.71,138.42c-5.53,0-10.07-4.34-9.96-9.51.13-5.82,4.91-10.82,10.22-10.69,4.83.12,9.84,5.75,9.7,10.89-.13,4.52-5.26,9.31-9.96,9.3Z"/>
  <path class="cls-3" d="M458.86,139.78c-4.05-.12-8.76-5.02-8.6-8.95.17-4.07,4.9-8.53,8.98-8.46,4.03.07,8.7,4.88,8.59,8.84-.11,4.01-5,8.69-8.97,8.58Z"/>
  <path class="cls-5" d="M156.87,392.34c-1.11-.26-2.02-.62-.99-1.96.33.65.66,1.31.99,1.96Z"/>
  <path class="cls-3" d="M351.03,275.49c-3.83-.1-7.73-4.41-7.61-8.41.12-3.93,4-7.89,7.57-7.74,3.85.16,8.29,4.54,8.11,7.99-.19,3.59-4.81,8.25-8.07,8.16Z"/>
  <path class="cls-3" d="M459.52,270.42c-5.14-.06-8.52-3.07-8.53-7.58-.02-5.32,4.24-9.61,9.35-9.44,4.77.17,9.49,4.72,9.48,9.14-.01,4.23-4.88,7.95-10.3,7.88Z"/>
  <path class="cls-6" d="M451.44,285.33c-.47-.46-.48-.94-.07-1.44.02.48.05.96.07,1.44Z"/>
</svg>